<svg xmlns="http://www.w3.org/2000/svg" width="920" height="120" viewBox="0 0 920 120" fill="none">
  <rect width="920" height="120" rx="12" fill="#1e1a15"/>
  <rect x="1" y="1" width="918" height="118" rx="11" stroke="#3d3630" stroke-width="1"/>
  <g font-family="system-ui, sans-serif" font-size="13" font-weight="600">
    <rect x="24" y="36" width="130" height="48" rx="10" fill="#2a2520" stroke="#d4954a" stroke-width="1.5"/>
    <text x="89" y="66" text-anchor="middle" fill="#f0ebe3">Connect</text>
    <path d="M168 60 H208" stroke="#c8853a" stroke-width="2" marker-end="url(#arr)"/>
    <rect x="216" y="36" width="110" height="48" rx="10" fill="#2a2520" stroke="#d4954a" stroke-width="1.5"/>
    <text x="271" y="66" text-anchor="middle" fill="#f0ebe3">Ask</text>
    <path d="M342 60 H382" stroke="#c8853a" stroke-width="2" marker-end="url(#arr)"/>
    <rect x="390" y="36" width="150" height="48" rx="10" fill="#2a2520" stroke="#4a9b72" stroke-width="1.5"/>
    <text x="465" y="66" text-anchor="middle" fill="#f0ebe3">Answer Receipt</text>
    <path d="M556 60 H596" stroke="#c8853a" stroke-width="2" marker-end="url(#arr)"/>
    <rect x="604" y="36" width="130" height="48" rx="10" fill="#2a2520" stroke="#4a9b72" stroke-width="1.5"/>
    <text x="669" y="58" text-anchor="middle" fill="#4a9b72" font-size="11">payroll_calc.py</text>
    <text x="669" y="74" text-anchor="middle" fill="#4a9b72" font-size="11">JIRA · clip</text>
    <rect x="758" y="28" width="138" height="64" rx="10" fill="#2a2218" stroke="#c9a07a" stroke-width="1" stroke-dasharray="4 3"/>
    <text x="827" y="54" text-anchor="middle" fill="#c9a07a" font-size="11">or</text>
    <text x="827" y="72" text-anchor="middle" fill="#c9a07a" font-size="12" font-weight="600">I don't have this</text>
  </g>
  <defs>
    <marker id="arr" markerWidth="8" markerHeight="8" refX="6" refY="4" orient="auto">
      <path d="M0,0 L8,4 L0,8 Z" fill="#c8853a"/>
    </marker>
  </defs>
</svg>
